{"title":"Bye Bye Birdie (1963) DVDrip EN-SUB","uid":12162731,"size":729380193,"categoryP":"video","categoryS":"movies","magnet":"?xt=urn:btih:b12bf22fc71d9a19f5aa5f657dd56e4e785ce372&amp;dn=Bye+Bye+Birdie+%281963%29+DVDrip+EN-SUB&amp;tr=udp%3A%2F%2Ftracker.openbittorrent.com%3A80&amp;tr=udp%3A%2F%2Fopen.demonii.com%3A1337&amp;tr=udp%3A%2F%2Ftracker.coppersurfer.tk%3A6969&amp;tr=udp%3A%2F%2Fexodus.desync.com%3A6969","seeders":0,"leechers":1,"uploader":"Mulva1989","files":3,"time":1437948906,"description":"*** NOTE ***\nThis video is interlaced, so switch on the deinterlacer in your media player for proper playback.\n***********\n\nBye Bye Birdie (1963) DVDrip EN-SUB\n\nA rock singer travels to a small Ohio town to make his &quot;farewell&quot; television performance and kiss his biggest fan before he is drafted.\n\nCover @ &lt;a href=&quot;\nhttps://yuq.me/users/50/321/Y4B6wEDXSm.jpg&quot; rel=&quot;nofollow&quot; target=&quot;_NEW&quot;&gt;\nhttps://yuq.me/users/50/321/Y4B6wEDXSm.jpg&lt;/a&gt;\n\nScreens @  &lt;a href=&quot;\nhttps://yuq.me/users/50/321/jETYg1I49v.jpg&quot; rel=&quot;nofollow&quot; target=&quot;_NEW&quot;&gt;\nhttps://yuq.me/users/50/321/jETYg1I49v.jpg&lt;/a&gt; &lt;a href=&quot;\nhttps://yuq.me/users/50/321/uWkxLe5V8p.jpg&quot; rel=&quot;nofollow&quot; target=&quot;_NEW&quot;&gt;\nhttps://yuq.me/users/50/321/uWkxLe5V8p.jpg&lt;/a&gt;\n\nVideo\nID : 0\nFormat : MPEG-4 Visual\nCodec ID : DIV3\nCodec ID/Hint : DivX 3 Low\nDuration : 1h 51mn\nBit rate : 730 Kbps\nWidth : 576 pixels\nHeight : 240 pixels\nDisplay aspect ratio : 2.40:1\nFrame rate : 23.976 fps\nColor space : YUV\nChroma subsampling : 4:2:0\nBit depth : 8 bits\nCompression mode : Lossy\nBits/(Pixel*Frame) : 0.220\nStream size : 584 MiB (84%)\n\nAudio\nID : 1\nFormat : MPEG Audio\nFormat version : Version 1\nFormat profile : Layer 3\nMode : Joint stereo\nMode extension : MS Stereo\nCodec ID : 55\nCodec ID/Hint : MP3\nDuration : 1h 51mn\nBit rate mode : Variable\nBit rate : 128 Kbps\nChannel(s) : 2 channels\nSampling rate : 48.0 KHz\nCompression mode : Lossy\nStream size : 101 MiB (15%)\nAlignment : Aligned on interleaves\nInterleave, duration : 24 ms (0.58 video frame)\nInterleave, preload duratio : 391 ms","torrent":{"xt":"urn:btih:b12bf22fc71d9a19f5aa5f657dd56e4e785ce372","amp;dn":"Bye+Bye+Birdie+%281963%29+DVDrip+EN-SUB","amp;tr":["udp%3A%2F%2Ftracker.openbittorrent.com%3A80","udp%3A%2F%2Fopen.demonii.com%3A1337","udp%3A%2F%2Ftracker.coppersurfer.tk%3A6969","udp%3A%2F%2Fexodus.desync.com%3A6969"],"infoHash":"b12bf22fc71d9a19f5aa5f657dd56e4e785ce372","infoHashBuffer":{"type":"Buffer","data":[177,43,242,47,199,29,154,25,245,170,95,101,125,213,110,78,120,92,227,114]},"announce":[],"urlList":[]}}